<?xml version="1.0" standalone="no"?>
<!DOCTYPE svg PUBLIC "-//W3C//DTD SVG 20010904//EN"
 "http://www.w3.org/TR/2001/REC-SVG-20010904/DTD/svg10.dtd">
<svg version="1.0" xmlns="http://www.w3.org/2000/svg"
 width="600.000000pt" height="600.000000pt" viewBox="0 0 600.000000 600.000000"
 preserveAspectRatio="xMidYMid meet">
<metadata>
Created by potrace 1.14, written by Peter Selinger 2001-2017
</metadata>
<g transform="translate(0.000000,600.000000) scale(0.100000,-0.100000)"
fill="#000000" stroke="none">
<path d="M1380 4486 c-58 -16 -116 -43 -160 -75 -59 -43 -1125 -1114 -1143
-1148 -9 -18 -24 -46 -32 -61 -64 -121 -54 -311 23 -450 17 -31 219 -240 587
-607 503 -503 567 -564 625 -592 86 -42 138 -53 240 -49 93 4 168 26 240 71
24 15 267 250 539 521 447 446 493 495 480 510 -17 21 -170 174 -191 192 -14
11 -82 -54 -494 -466 -264 -263 -490 -486 -504 -495 -39 -25 -111 -31 -155
-13 -25 11 -204 183 -570 549 -555 555 -555 555 -555 635 0 60 36 101 550 612
285 285 534 528 552 541 48 35 132 33 179 -2 31 -24 853 -845 2126 -2125 318
-319 453 -449 493 -471 79 -45 158 -63 259 -59 97 3 162 23 236 71 48 31 1070
1044 1139 1129 136 168 136 424 0 592 -18 23 -274 282 -570 578 -498 498 -541
539 -608 571 -39 19 -98 40 -131 46 -117 21 -257 -7 -352 -72 -27 -18 -268
-253 -537 -521 l-490 -489 109 -109 c105 -106 110 -109 128 -92 11 9 230 227
487 485 307 306 480 472 504 482 45 19 84 19 128 1 49 -21 1085 -1058 1108
-1110 24 -51 18 -119 -13 -160 -14 -17 -259 -266 -547 -553 -559 -559 -548
-550 -635 -538 -21 2 -49 12 -64 21 -14 9 -237 229 -494 488 -1306 1313 -2064
2070 -2102 2096 -77 53 -141 72 -245 75 -53 2 -115 -3 -140 -9z"/>
<path d="M4349 3553 c-64 -64 -89 -96 -89 -114 0 -34 165 -199 200 -199 17 0
50 26 113 89 109 110 109 112 -2 223 -112 110 -113 110 -222 1z"/>
<path d="M1366 3554 c-9 -8 -16 -21 -17 -27 0 -7 0 -90 -1 -184 l0 -173 -62
-1 c-33 0 -111 0 -172 0 -62 1 -123 -3 -138 -9 -26 -9 -26 -10 -26 -124 0 -93
3 -116 17 -127 12 -11 58 -14 197 -14 l181 0 2 -183 c2 -230 -3 -222 133 -222
147 0 142 -7 144 220 l1 184 182 1 c156 0 185 3 199 17 13 13 16 37 16 123 0
67 -4 111 -12 119 -7 7 -71 11 -199 11 l-188 0 -1 165 c0 215 0 206 -18 224
-12 13 -38 16 -119 16 -81 0 -107 -3 -119 -16z"/>
<path d="M3868 3113 c-64 -64 -88 -95 -88 -113 0 -19 24 -50 89 -114 109 -109
111 -108 224 6 106 106 106 111 0 217 -114 114 -116 114 -225 4z"/>
<path d="M4768 3116 c-47 -46 -88 -93 -91 -105 -6 -25 14 -53 108 -143 42 -42
78 -68 91 -68 14 0 50 27 95 73 96 94 110 114 99 143 -14 36 -170 184 -195
184 -13 0 -53 -31 -107 -84z"/>
<path d="M4347 2652 c-61 -61 -87 -95 -87 -112 0 -32 166 -200 199 -200 15 0
52 30 113 90 81 81 89 93 83 118 -10 41 -163 192 -195 192 -19 0 -49 -23 -113
-88z"/>
</g>
</svg>
